<mxfile host="app.diagrams.net" modified="2023-06-18T16:57:57.716Z" agent="Mozilla/5.0 (Macintosh; Intel Mac OS X 10_15_7) AppleWebKit/605.1.15 (KHTML, like Gecko) Version/16.5 Safari/605.1.15" etag="P75xxbrz_0JHCQpN0tGf" version="21.2.4" type="github">
  <diagram name="Page-1" id="Zaj-8mNydxImLsVuOgwq">
    <mxGraphModel dx="1194" dy="797" grid="1" gridSize="10" guides="1" tooltips="1" connect="1" arrows="1" fold="1" page="1" pageScale="1" pageWidth="827" pageHeight="1169" math="0" shadow="0">
      <root>
        <mxCell id="0" />
        <mxCell id="1" parent="0" />
        <mxCell id="ay9xnxpB-Cgh22EdbN1C-2" value="" style="rounded=1;whiteSpace=wrap;html=1;fillColor=#ffc4ab;strokeColor=#d79b00;" parent="1" vertex="1">
          <mxGeometry x="255" y="120" width="280" height="280" as="geometry" />
        </mxCell>
        <mxCell id="ay9xnxpB-Cgh22EdbN1C-1" value="&lt;h2 style=&quot;font-size: 20px;&quot;&gt;&lt;b style=&quot;font-size: 20px;&quot;&gt;&lt;font color=&quot;#ff7b28&quot; style=&quot;font-size: 20px;&quot; face=&quot;Verdana&quot;&gt;Light-Weight MPC&lt;/font&gt;&lt;/b&gt;&lt;/h2&gt;" style="text;html=1;strokeColor=none;fillColor=none;align=center;verticalAlign=middle;whiteSpace=wrap;rounded=0;fontSize=20;" parent="1" vertex="1">
          <mxGeometry x="288.65000000000003" y="290" width="212.7" height="40" as="geometry" />
        </mxCell>
        <mxCell id="ay9xnxpB-Cgh22EdbN1C-19" value="" style="endArrow=none;html=1;rounded=0;startArrow=classic;startFill=1;strokeWidth=3;strokeColor=#FF7B28;endSize=6;startSize=6;" parent="1" edge="1">
          <mxGeometry width="50" height="50" relative="1" as="geometry">
            <mxPoint x="330" y="190" as="sourcePoint" />
            <mxPoint x="280" y="190" as="targetPoint" />
          </mxGeometry>
        </mxCell>
        <mxCell id="ay9xnxpB-Cgh22EdbN1C-20" value="" style="endArrow=none;html=1;rounded=0;startArrow=classic;startFill=1;strokeWidth=3;strokeColor=#FF7B28;endSize=6;startSize=6;exitX=0.003;exitY=0.814;exitDx=0;exitDy=0;exitPerimeter=0;entryX=1;entryY=0.25;entryDx=0;entryDy=0;" parent="1" edge="1">
          <mxGeometry width="50" height="50" relative="1" as="geometry">
            <mxPoint x="330.0235474787446" y="220.0747242853256" as="sourcePoint" />
            <mxPoint x="467.05701507441995" y="209.29786209334247" as="targetPoint" />
            <Array as="points">
              <mxPoint x="280" y="220" />
              <mxPoint x="280" y="353" />
              <mxPoint x="510" y="353" />
              <mxPoint x="510" y="210" />
            </Array>
          </mxGeometry>
        </mxCell>
        <mxCell id="QqxZ6Jl-qDBEgsE0jg5c-1" value="" style="shape=image;verticalLabelPosition=bottom;labelBackgroundColor=default;verticalAlign=top;aspect=fixed;imageAspect=0;image=data:image/png,iVBORw0KGgoAAAANSUhEUgAAAM4AAADOCAYAAAB2Hz3EAAABdWlDQ1BrQ0dDb2xvclNwYWNlRGlzcGxheVAzAAAokXWQvUvDUBTFT6tS0DqIDh0cMolD1NIKdnFoKxRFMFQFq1OafgltfCQpUnETVyn4H1jBWXCwiFRwcXAQRAcR3Zw6KbhoeN6XVNoi3sfl/Ticc7lcwBtQGSv2AijplpFMxKS11Lrke4OHnlOqZrKooiwK/v276/PR9d5PiFlNu3YQ2U9cl84ul3aeAlN//V3Vn8maGv3f1EGNGRbgkYmVbYsJ3iUeMWgp4qrgvMvHgtMunzuelWSc+JZY0gpqhrhJLKc79HwHl4plrbWD2N6f1VeXxRzqUcxhEyYYilBRgQQF4X/8044/ji1yV2BQLo8CLMpESRETssTz0KFhEjJxCEHqkLhz634PrfvJbW3vFZhtcM4v2tpCAzidoZPV29p4BBgaAG7qTDVUR+qh9uZywPsJMJgChu8os2HmwiF3e38M6Hvh/GMM8B0CdpXzryPO7RqFn4Er/QcXKWq8UwZBywAAAGxlWElmTU0AKgAAAAgABAEaAAUAAAABAAAAPgEbAAUAAAABAAAARgEoAAMAAAABAAIAAIdpAAQAAAABAAAATgAAAAAAAACQAAAAAQAAAJAAAAABAAKgAgAEAAAAAQAAAM6gAwAEAAAAAQAAAM4AAAAA2QWWOwAAAAlwSFlzAAAWJQAAFiUBSVIk8AAAIzFJREFUeAHtXQmcHEW5r+qZ3exuDpI9ciECER6QhXBECZDsgQFBQEQuFQSBJ76oROWByLnbGxIwiEYOfSJKAAOIvB8gggeizOyGxPgISEggERAQyLU7i4TNsbsz/b1/7WYmu8ke0zPV1dU91b9fMr3dVV9937/6X8dXF2PmMggYBAwCBgGDgAoEuIpETBryEfj1OSxSXV0dKWNVVmlHeyRijbY6yooiRZ3bItER0UikKxLppM6uj9z8t4T81I1EQxzJ30BbU93nLMZs4qyKMY7bnRfhyc6Lc9Z7Tzt/xXOOp+lLhO0Jwy1iZDFiEbyOsJ33CLtLbjrOYL9Ez26gtpOr7TVdgwUxz90jEHUfxcQYDAHbZpbF+d14X7GLBTtD9+FFJv4egfYM28ufdAxEGCxOOsjuv5wfP4EqTsPjR3d/Zf7OHYHsS67c0yiYmJclaw+CsRW6GWxx6yjddAq6PoY4EnOQF9FUieLkieJULU+YkSQQMMSR+B2gy3KwRHHyRBE7VJ4wI0kgYIgj8TtA/0ZP4jA25Z3Ljy2VaGrBizLEkfgJEDE9iQMv3IhRRXrqJhF/laIMcWSizZlwDmh5WVFummsSc8YQRxKYbdcduzdcx6MlifNADDcOAomoGuLIArM4qnVTyDKeNVk53SPHEEcanNo6BnotNJ41aTktBBniSIITc2O0rnEw42DfzXb9KEnmFrwYQxxJnwBZmtc4YoKblTT9HEn5bYgjCUhMxNS7xoGd3IkeJsvcQpdjiCPhC9h45bSRmMO5twRR3orgZgaBLIANcSQgGRm1F8ZvBpr+LEG4XBFmLEcSnmZZgQQgI7rOUdvdNq7XJNR2e9ZHiUdmJykVn2Av/efu6ur8d6BqHHiFJibsutvw7wdiwFEXYEnfOWr9IMIA7aT2707fq99Dn/5om1f3TbIia7FA754oj6xpa6r5rE+q5JRsYIiz8fra/aOcVnCLfxP//tsqLl6dsGvPzclq+ZG0dwykTabS0Yek7/34ffvqWePa59U9ZjF+G4jcM/EU5CnBmqFHEk01Z/mhUy5pBoI4G+z6/YqLeAzdiI9mjOR8LPyrDyfm1f1CdM4zz324Qe8mMMRhzPFtzVDCrj9mdFn0RfQHz9gzm3gRZ5FfaVQY7qlinyfaE0e0g0dwerYfafoYgFLrkqLR415otWt8WeW4c7p+cIjDreP6wKfqlifm1V+JAqYFCe47aKKcRVEYPthu139h0DCavNCaOCihPsJ4RJBmv6HwQlX/HxFuLU801V6BcG5X5Q8leth3pWOLT0aSRcMG1CQA53TmhmtqsJGImmu9XV+JVsGTyJTvI2eycUZFMJ9lSWtT7flqNMwtFaUfmRsVReffGjEijjgfcxMPa2L+mOzc/uUJN63Y5CZeLmE3XX/cx4qKi/4E4uyfS3zf4hCtShH/zyo79ryXOmy2a2sjqEHwkbl35BA5DtHFlXbz/V7qmKtsLYnTem3NJKvEiqMZdmAuhhHRZqf3w3gyl/hDxXlt7gEjKiomz8YUm8+BMF8EgL72r4bSdbh32HrqNcx4eJKY89Rb721r/vjPVnYPFyeb92LPt9nVdQ1w4lyH8NjWKscL5CHGvlLRGF+cowTPomlHHOFyjlgsBsXyXhTmOM5Pu9jWKybbK7flg+Aau7p4Iqs6HU0NtL3pJDQNwzdZkujf2DPhYeLJxZUNS1fkipfok6J5/QCa17NyldE/HopBh3+1wo79vP9zf//Sijgb7ePGF1lFIA0/RBYsKLHWOSx5flXD0pVuZSZumFnNI5E5+AjOw79yt/GDGh6YrWHkLGpvW7/kwDte78zWjja79kxsLIcPnI/LNk524dAAJ/paeWPzXdmF9z6UNsQRHdbi0sizUMiDGbzUjTq/8U6KL8Smgc5wsLY21R0Pr8l3ULN8eriwYX6Psn4jZ/Sjrg//fefEW1dtHcxW4VksGztiEbxm/zVYmPyfo+Jh7LLKhvhP8peVvwQtiCM8LyUW/QUllbezd4ladnR1XzB5wbK3B4KufV7NTKLIQnwAMwd6X6jPBIFQ5M9/672tP9u9H7TJrpkWtSLCAeBBgbcn4nAYfLOyMX7Hnm/UPvGdOO9ec3RFWWnZn2H24SpMx0ewBTszX/OXl+N3nfsIS4k0e5pk0aIF6MMEatqHCrz6pUH0FrC7g1jqOXKipRHOzkaf71I0Y4v7hfP4DzQlL69oiP3I42SGFO8rccT0i9FlEZCGHzmklh68BPjvcaIX8DsJNcx06OArFh6YGGqRyLfvgDy3+mWkbx/Lm3b92L0s9gwMx0drLoNADgiQczUcBgtziJl3FF9mDogZumM4/RHaG9LknYUFLIBb38Ms62v9QEB5jdN61czR1sjo0/BYHeOHwSbN8CGAfmsDBklvVGmZUuKIXVYiqGlAGj8mGqrE1aSlGAGM9DRVNMZsVckqa6qJqf9YT/N7QxpVWVtY6cC109jeVD9fldVKapz19vSyEj76d3D31qkyzKRToAg4zvfK7eZrvLbe8xpHjCqX8FFPGtJ4nZVGfg8ClnV1oqnuFq/R8LTGgcu5ZIxFv8XcsxO8NsTINwj0RQAOg0VwGPx332cy7z0jzk7S/Aak+ZRMhY0sg0C2CGBRwu0Vdvxb2YZ3E86TpppYs4JxmkcNadxkhQkrGwGxsQscBndCrvQKQrpAsXZlEq96FKqeKhsII88gkAsCcFXfBlf1t3OJO1gcqTUOpuxbk6zKhw1pBoPbPPcDAbiqv4UZBp+QmXZUprDLWP15kDfA1j8yUzGyDAI5IOCQ1NPypNY43KLxOZhkohgEPEUAHra/3cmaYzITkUqcToffjyWubTIVNLIMAvkgANJ0pLrpS+hGDLvy1006Uokz2Y61gThfxuImLJcwl0HAfwSI+Nzx85tfk62JVOII5TDd4Xfwn/9AtqJGnkHALQJY7v2rSjt2r9t42YSXThyR6Jvrt16LOifnLYayUdyEMQgMiQCWefOtHXOGDJPHS0+IIzZ06CLsQYa9uvLQzUQ1COSGALEk9kY4r3zhyg9yEzB8LE+II5KdZMfeQm/skuFVMCEMAnIRcDjW5jTEl8uV2l+aZ8QRyWAbn8eY44gpD+YyCKhBgKj5Tid2k9eJeUocoXwisf5KNNle8NoQI98gILoG1CXf9TwQsp4TR2yhmuymLwh/+kAKmGcGAVkIwIs2p2JB8zuy5A0lx3PiiMSFHx1GXTaUIuadQSAvBIh+WdHY/HBeMlxElj47eqi0cfbjA5jhLeazmasHATjtib0DD9A/8Oe7nNgG/L6PAeQtDlnY7NxxsEdDBIfz4igRwkoNPp5xmoQ4U5BxB2APxbEGSIEAvUnOjiMq7BVbVOEhdZLncErDuK/hnNRjkOFThgsbxveYTrEJH30MbHkOM3af73Q6XsrnCBJxYp3DnKNwGt3R+HjEfg5Hq96OVoN8wjbGzgUqSSNsVlrjiATb7JqjLctaiqQDc/yf0DuP6yUQ5dGUw58Yb8f+noecYaOK7bcsTieClKdjESEOvmJ7DRsp4AHQd74RS6QbVJuhnDjCwPam2u8y7MKo2liF6X2AaUe/wMe7uNyOrVaYbiapnqXrjJ3GLLoUmXwiCipf8jqjkAc3YnbKKmKzjrdjSQ/EDynSLzBxCnHd0/iwThhSu+C9fMNhdDt1JBdX3fLch7qov/n62gMjRRzn/bCLQlPTE3WlKHVYlb1U9A+VX34Rh4nDcfmI4ldBHqkLjJQj2JMgOqdE19xBzY/Inr4u056N19fuX1TMr4eT4UI00pX2b2XaIWQB78Vool0iW2628nwjjlAQ+1/9EF6jy7NVVsNwHyAHFyTa3rvdzZF/ftuBvtABONvme6iBzvJbl1zTB3EuAXEW5xo/33j+ljpEfw1q0xvt6/s6iV052Y4HbuEenBSv48M5u82uP4Nz+jEKr8n5fkiq4/e66FWnuis9JQOgu5Lrf4cSb1z/JwH4CytccZzemdg15aKehXsBUHkwFbFW5XG+rWMqCgEcSov/A3ThbNLP+Kmur8RBqXG2n8a7TpvYU92dOw7tmbzqOrKeEcTUexQCc1IOnYHmj7IBxHzRQN/4U23zZs3IV06u8X0jjjioNkheNXxUN5Y3xj4z4aYVm3IFW+d4VXbzEw6lPgE7X9FZz766WRTxfI/ovun1vfeNOIysm/sqovF9p+OwC3YOsgWqOeMWU+HaTRGfAfI85jauL+E5r22160/zI21fiNNu154Cp0CNHwa7TDPBWGo2+gJLXMYLbHA4DjruoPjZmO1wTxCMwEFlC/zQ0xd3dKKp/q9wDPjWPs0OaHo/6fBPej1NJjtdfAnF25vqfowC7mu+pO4mUUqdVt7Y8pSbKPmGVV7jYMbAsbqTRnSSsez7pAImjfiuqLwx/nVgsSjfj8z7+NbV3qfRPwXlxEHy3+6vgl5/oROzlXPnlMqG+P/ppZk/2qBvhzNm6H5/Us8yVc5nicnDWYaWEkwpcTZcU1OF6R5nStHcEyFEjuOcV97Q8pwn4gMqdIPTdimGeVp0Vh/Llr6qUj+lxCkqsb6g8xwpDAHOF25ZlRkQhLSq7TVd23ZsF8sU3tBXX/q8WFahSj+lxIEn4kuqDHObDrxIv4M3yXYbr1DCf+TmvyWcLucz6PNs09FmTBsahY9Z2YC6MuKsv+64fWGc0nZo9hlMb25x+Pk6z2zO3hbvQlbOb34VBcxV3qWQn2TLIlErKrmUEadkRPGnlViUQyJoov3X/nbM7DqaBXaVjc0/AXmeziKo8iBw7Jy43p5epiJhZcSBZ0bLow1BmvvgOfqTCrBDkgYcKMmLkZ/YVESvC1O4SovZyJNVaKWEOO9cfmwpPtBPqjDITRpor2/eRp1wt5rLDQJV9nPrsZL0WjdxVIXl3FLiXVNCnNJxxZeif6OkCnWTQTg75Yp97OXtbuKYsL0IPPNy7G4UPK/ohgcG109K2LWLsOeCp1tneTrl5tfnsMjs6vqLucXuBMAjdAIZ7eE1dzixacYhkHuu9Mw5tCylU12y1hZDcsjjVzD88QrOYluLZtyr2NFjbecHnev2WbR8e9ZyBgkojTjr7frKKHOmRjk7BCX5VGaxqUhzBhTWck8BlJbnom/zyCC4mMdZIoApVH8K0vIQ9M3g22BvYxPItfh9FTXU2qRDax2WXDvRXrY5S7Pd76vWetXM0XwUn8rJOpQx6zAkhF86DE2x8dkm6ns4olWYh3UE9EChZK58EGidV1MXYZFYPjL0iUvvg1Zroc9aQSiHnHXU7axdHS16Y/ctqAatcTZeOW1kdMy4qczh1Zw51Zgli18mfj+qj6G5aYJpNWdV2s2P5hbbxNodAcyifhHfhSiIQnmhitqOIvYP26jrK+k+cb/NOrDrjNgF8usIdATqon17NrHrcR8o8SGoAv1tHN39uKrECiEd7MGwyOL8vrDaKtzc4MPnRrKiFbBxobAzw4iEPWMMXv4GZDkDpcd+PaQRIcJ3/dQ4BORm6iaW+BX6jBvlStVRGt87rVWGODw1Yt8eZqXfhPEXnpaU031/GE3z0yYxCRTp/9JPHdSkDf/wzitzk4xYkfTDsP4S48/2Dt6F1UL/7EomUw/4l7qilOEuTqeUIQ6xFBY9hvuCk8O4nz3K4gk3LhWnMrzmkXjtxGaIE005OGck3JfT1f1kuC302TriBbOWKUMcokjYa5yXKhcsf8/nTyvUyWMM5A+hNhBOgLR9u4gTDXeNg0yNpY02v94g0MU+XIaBeeEoCP2VIY6TDDtxnObQ56bPBopjGTEV4wWf1VCSfIY4xKKhbqp1dSdXKkG0wBNBW6YgdgfKEKc4zE01ovbJC5a9XeDftBLzUeO8qCQhHxLBDIk9+zhOdyq0XjVkppi4Zy4VCIhZxwVwZWocojA31XjBjC/4/c1u3779H37roCL9DHFSxeGtcbB64F8qwDRpMCa2keqZTRxCMLAse4CmGisOrXMALdMCmICoz5eK4Q7sSRDuK1PjdO9IhraPwx1qC3c26mUdZkqHfh+HDHFGlXSHlziMdej1aYVdG74llBZi4/O0XRnipFhpaJtqKc7z3pwhDZj5HR4BnGQderwzxMHuH6GtcRhxeKTNpQwBsR1GGC/imaU3GeLsSLaGtsbBcoKMnWHMT/1s2rXgSz/d8tCI057EyUOc9lFxLPxI7ZUMlYKk3eaTMuBFBydTAGduuipGhLN67UGMxsgAzsjIDgF8SFrupZed9kOEGqipNkTwwL9C6VAZeCMCZABK5uDssecCV3TdMhVN5sZF/AAG3bU7SQCVD57KnE8IntJZaMzZnn2c7etLQtxUC/4millkqxZBWu2Zk6GIVvuESwOm0JpqnNFB0sAzgoZEgFjkgCEDBPplgTXVUJX+hzg5IdB5FhDlo9gqOSCqulYTu9xmvqFMH+fDyaND21QTZ/PMPnjmwa6RMhFcI4BJKUe5jhSUCIXWVBP5QpGiTwQlf4KsJ+ZoHB1k/YfSvQC9atgJ26K6oUAx7/JH4O2rZ43DBkri6JdwXn2aav1OKwintb1WYY3I8WG2TwfbRpZEReGUmUGsg06Sdch0bTI3rWtioe3j7ARv38QNM0PbcZX8geQkDp3n03KKGJBIaIbu6RwIiO55qUnR6Ol5CTCRB0UAR6egEKZTBw0QjheFSRwcfvT5cOSfflZ8g9fVwXs5UT/NpGqUaaFlbl6pDukaiv64HW6aa/0BkfWXxfj5smTpKgeu9h1p3TLEQVWLPg52WA75xSOROSE3Ubl54kBlfDuhr81xvlI8DW6GOHggWBP6zeTIsi5+064fmwbA/OaPAB8ZuRDNtFH5S9JMAmGTF2Jx/PsxNiA5t7IhNj+tYX93dHfyHFYUvRYexRmg0f44C7QvsdJxAv0LX+nIMRb7Coy4NdCGaKK8mMoE0nxLE3VyVIPeBznWoEbBP8I/tjpF3Wsm2ss2DyZwUJ/7a3MPGFE+dsIBLGodTNw6CAw6CFXSwQBJTJjcazCBgXhO9K9nVsennPsIC+8+C4oyos2uv8iy2GJFyeWVDGqNbfh+X8V3vJox52U0slY75Lycy/GWgxJnKA03XTtjglVceghG46daxKdCgalYnjwVwoKzDoOcOeWNzXcNZad5NzQCz9r10cM5rUPLZMrQIdW/BUk2Y1zpGfy+gMHvVzqJvzrJjr0NTaT043MizmAwvHvN0RXFpaVTowQigVBQ/AgQajoS0W7NP9Db5HR0H1h1y3MfDmaPeT40Agm7/itozN89dCj1b9HcurfT6fiGOK/Hq9SlEmcgJXeWSpejVLploPe+PnPopnI7fp2vOgQ08Y1XThtZNGbcqyjN99HJBBSI61Y57NDj7VjSS7087/wLA1KdzpJep52XpriXjWVJl7fbsz7qPqaJUTS6fIFupBG5AuIs8Zo0Ih3PiSMSqbqpZQM6ZMvFvU4XMr4USyx+Dp08r3l1sjtfXdrmzZqBVbVz85XjRXyn23nKC7m7y1RCHJEoSoJf7Z64Dn/Dy3JiW1PdZTroEgQdnv/q9CLsy/dzHYcq0LfZMP7G5r+rwFEdcTqd/8XYkJa7hcKJsRBuVbNCNIsvbr/Jo+ajsDk0i6B+BBG1Dcpo7y9lxOlprjH2Z+9Ncp+CaLJhLGLJO5cfW+o+duHEgBftbMviV+lqMcplZa0aZcTpAZtI9Cd0vaaXjSu+F8qZ/s4AOZSwa6YyTosHeKXFI4zXrL+TWp5VpYxS4mxkicfRXGtTZZzbdFDznJuwa+e5jRf28D1z+yzrcTTRRmlrK9GDts2UdQWUEqfaXtPlELtHW/ChGLes6+EsuEBnHVXqJmY+j+H0exQqB6pM11VaaKMlk8mfuoqTZ2ClxOnRtbvrdtQ6XXnq7Wl0rC25p92u/4KniQRA+Hp7ellkZPQp1DTH6K0u/+2E+cveUKmjcuJULlj+HhYEPajSSNdpcRZFe/6BtqbaL7uOG5IIaJ6VjOCjn4DbuUZ3k1I8tUi1jsqJ02Og43xfV9d0JgOwpAJLrRe3z6v7auZZgdyst+sr9+L0J7jpZ+tuMsZu/lLV0BJXracvxKmwW15BrXO/amPdp4dPh/G72prqv1coW+iK8awSTitQ08xyj5f6GBi0uVp9qoqm3AxoWCc1wIW4Y8B3mj20OPvu7EPrfi9mf2ummlR1QJoTLE7LQZopUgV7JAy1zaOVDfH/80j8kGJ9qXGERhULmt9Baf7jIbXT6KWYmlNWUvp8q10Tur2R19jVxe127c0gzR9BmsAsK3ccZ4Ffn4ivg32b7fqJUYu9C+Mz+1X5BUT26VI3TrG+JdH27o0H3vF6Z/bx9AwJ7+GhcIT8EoQ5Qk8NB9UqUd4Q8+2kPV+JIyBJNNWtQWmOVaTButC2XpdidOn4hnhLsDTv1VZ4zUZz5wqLWzfgSQAPgqLW8oa4b0cm+tZU6/OxRfvcB+YWJc5BUDyemFe3eINdv19gFEf7GM2y8+A1WwfSzIfeASSNQJtXtc6bNd0v3H2tcVqvn3lQpLhorV/Gy0uXulEDLeZOakG5vfRf8uTKlYTpRJ9Ck0zMbg7HkSdEz5Y3xoXLHPCrvXwlDsZIfouS4zS1JnuYGmZEOET3YJHXHcLl7mFKWYsWTTJMmbkAhPkWMjt8m84TXQXyfD9rQCQF9I04um70IAlXUQbGMS/vXs62P1phr9giTW6WgjbZNdOi3PoSMvhikMa3TnSW6uYRjLpTDj+uyo49n4cQ11F9Ic7m62sPjBRbLyJx7Xa/cY3gMBHEWBWGUZ8mh6N2ZX+osGPCiyj9Eiszp0wePQP7hZ1KFv8sJmUeIj0RXQUSvZ7amjxK5Y5FyonzLPbimsZpWWja2e4/pjcwcNeCXSNXWiz14g4nsm6yHXO11EKQZN/xJVN4NFKNCanTsenI0WjyHlsIBdHgcNMSeNmUzWpXTpz2pvr5WCpmtmTq+wUQ/RuYvIMe7iY8xn7FfCsnZzvWOCB/eo4IxzoYPgaEG48CZzKagXsjfCC9kX3Nln2P/uWFlY3xX8qWO5A8pcTBYNssDLbF0ebWwQ0+EB7mWYARQLO4I0X8yPF27HWvzVD2ASfsGWOwGdUSQxqvs7Rw5aM2HhXh9JBoynqNgjLicF76Exizr9cGGfmFjQDI8/H99x610GsUlDTVWptqz49wa4nXxhj5BoE0AinH+WyV3fxE+m/Zv54TZ5M9a0rUivwd7lGc2mUug4AiBIjaGaWO9Gomh6dNNeF6jvLog4Y0ij4Wk8wuBDgvx/bGD4lvcNdDeXeeEgdnp8zD4B8G5cxlEFCPAPo7xx3GyJM1O5411Vqb6o7HIptnjBdN/QdjUuyLAJzUDj8FMzb+0PdpvveeEEcsMS4tLXsJwvfOV0ET3yCQNwLYBDNFycNzObJwsLQ9aaqVlZT9wpBmMMjNc+UIYJJrhBf9TGa60mucNrv2Qsuy7pOppJFlEJCBQNJhozGroEOGLOkeB0yv+rIMxYwMg4BUBIhWjbfjUkgj9JLfVCP+slSDjTCDQJ4IiMmzKUqdk6eYftGlE6f7w/br4MdY1i8V84dBwCcE8C1uZk7qk1X20n/IVEE6cSbeumqrszV5Ms78fE6mokaWQcA1AvCmceKzvVjGLp04wjixEi9F7GTsDx3IrZNcZ5CJoCMCiW5yZpfbsdVeKCfdq9ZXyY1XThtZPGbck1iEVd/3ubk3CHiKAOapJVHTwIPm2UG6ntQ4aVBEs22H03Gq2FE+/cz8GgS8RYDeT5FzopekEfp7WuOkARKH0paNLf4N5g6dmH5mfg0CHiDwQcphJ6jY8cbTGicNzD6Llm/fQvx0OAz+mH5mfg0CMhGA92yL46Q+pYI0Qm8lNU4aoNfmHjCivGrvR7HM4JT0M/NrEMgXAXQFPoSMkyoa4svzlZVtfCU1TloZsbv/Rqftc9i5BQ4DcxkE8kcANU0HZ86nVZJGaK2UOCJBcfL0BqftLGxx9Bvxt7kMArkigBkBW1OcnVLe0KJ8zFBpU60vQGInEmyq8DAcBqiBzGUQcIcAapptDvFT0aeJuYspJ7RvxBHq9+zqadFD6POcLcecXKTgoCjGi3KJWahx4ORZwYn+jL5FMQq+M7FYcYpKLJDudnLotEq72bdhDuVNtb4AH2/Hkqsc/kVkxMN9nyu5J/otppkfiW1TR3zgsHEowcTp0m8rSTu4iax0HHZiRWPsmHI7fl2F3fydf77XcTDMuQazRLpUmIV82oEVnaf7SRphp681ThpocaLzCYfV3Q91zks/8+oXwG+B0XNwNMRDu6fR4/WrnHwZasBrUYqW7/6+UP8GZpggSQ0Vjc2/BgboWux5bbph1uHRougDwNbLo0Q6iVKfrWhs8X1YQwviiGzoIc+hdYvxwXq2cTY+gL92d9N5E+c3v7ln1u968qZdP3aMRd/kxOZCn8pdbwrrTkzUxb9b72SxJ2ybOcNZD9xKxjBaiA2O56IQlPtt9dZoZ6DA+/1weqh4L9e4PDVG5lhzrTosu+YX5Smqf3Rs14AHC18i3iCah/1fDv7Xent6WbE1+hKANAf/vCxJB1dC+Rt6HxR5KMX44lwHExNNNSfBYXsv+j8TpagP0mBP6LOgjzbDGFoRR4C8kzx3gzyXyAAdtcx6/Lsg3zZxm11zNM7MvIg4Px2ghWwTEpCF+O+IpR5rb9vwpIzTtNfb9ZUlFt2NmueM/PKRuh1yzqlsbNFq+EI74uwEmeM06rtQYl2aF+hwAOwgfonb82eGS7P9htrDWJSfjHCfQYukZrjwer5HccLYfTg17v7VxFvc1MRu7EE+ijz8EfKyzE28nrDE4L+hc3F0x2Ou43ocQVfiCLM5Nv74CTb+mOMaA3EWJ2ffqWyI3+46rssIYv84uCYfx4cxxmVUX4ODNpdUNMYXq1Ci95DkKJwx/Mis0wNpwOwvYj+0/806jsKAOhNHwCCOFr+dWdZlLjB5I8WSn69qWLrSRZy8grbPqxfk/p+8hKiNvLK8IfZxlUmusauLJ7LKm+E4uBzZOtx3l0K39Hx48dQPU2QJCgpLrS8qt5vnouS5LRstMTD2axxkdpRK0gi9Uh3dD4ifbHTUIYzj0J9V6yGmWlXY8StAiE+jiShOnhvsSjHHuVBn0gjFdSdOD7gYcPs2Rop/OBjSaHbsYOTMwUS/z/txwnPPoa1EawbTT7fnxGmVXzqJMZhup2sa8mxPtzJYheMIL0Zh+aBf+mWbbiCII4zpLa1oj/PsUXqtS5Izo7yx+a5sjfYo3EseyZUvljtr5QvNXuJEe9lm9K9OBU++3VPoiajCEQDSqDrDM3ttBw4ZGOII9QH2VQC6AdM7MC6DO0b3YMXfxyfYLb6VoLtgDVCN40TX7dLbtztCc+y2LsKx8kRfB22OwpDB/b5p4zLh4TppLsWpCZ6w6z/CWdLy6tCgXKyAE+MUODGeyiWuyjgobt5FAbSPyjTDmJb0LXBVgAQX5bsq0nGXhrM6EF1GznxtprnDVN/QgWqq6QsjY6L2Q2m+RWcdhW7cIUMcCZlkiCMBxD4itPesYWDYEKdPhuV6a4iTK3IDx0NzTffL1DgycsgQRwaKO2UQZ/oTpytpahwJeW6IIwHEjAhytG6qwX3/YeWC5e9l9DU3OSNgiJMzdHtGTHV26V3jENNh/GZP4AL4xBBHYqZNuGmFmIOVkChSqihMrTTNNEmIGuJIAjIjRuM5a5jSYoiTyaj8bgxx8sNvoNja9nM4WaapNlCO5fDMECcH0IaKghWL+hKHmabaUHnn5p0hjhu0sghLZOlKnFQi8e5rWZhggmSBgCFOFiC5CZLsTOlKnLdkbMLhBoswhzXEkZy7k25uacWSB/zT7KIADM5qBtlQ6hjiDIVOru+I/TXXqF7Fczg97ZXsQpQbyGUFumdUilJXWixahnGTA3rW2zGGjfWxJwE2LoPuDp5n7rGCFc+4WJiHEyt677G0ufd9bzjCRsUI1nvh+PHMPcPO5+nnPb+YGpD5e2ccIt6N9J5/2eE/y7wzNwYBg4BBwCBgEDAIBASB/wc2fKfLs9OwMQAAAABJRU5ErkJggg==;rotation=45;" parent="1" vertex="1">
          <mxGeometry x="336.7" y="148.71" width="124.58" height="124.58" as="geometry" />
        </mxCell>
        <mxCell id="QqxZ6Jl-qDBEgsE0jg5c-2" value="" style="shape=image;verticalLabelPosition=bottom;labelBackgroundColor=default;verticalAlign=top;aspect=fixed;imageAspect=0;image=data:image/png,iVBORw0KGgoAAAANSUhEUgAAADYAAAAqCAYAAAD4Uag9AAABdWlDQ1BrQ0dDb2xvclNwYWNlRGlzcGxheVAzAAAokXWQvUvDUBTFT6tS0DqIDh0cMolD1NIKdnFoKxRFMFQFq1OafgltfCQpUnETVyn4H1jBWXCwiFRwcXAQRAcR3Zw6KbhoeN6XVNoi3sfl/Ticc7lcwBtQGSv2AijplpFMxKS11Lrke4OHnlOqZrKooiwK/v276/PR9d5PiFlNu3YQ2U9cl84ul3aeAlN//V3Vn8maGv3f1EGNGRbgkYmVbYsJ3iUeMWgp4qrgvMvHgtMunzuelWSc+JZY0gpqhrhJLKc79HwHl4plrbWD2N6f1VeXxRzqUcxhEyYYilBRgQQF4X/8044/ji1yV2BQLo8CLMpESRETssTz0KFhEjJxCEHqkLhz634PrfvJbW3vFZhtcM4v2tpCAzidoZPV29p4BBgaAG7qTDVUR+qh9uZywPsJMJgChu8os2HmwiF3e38M6Hvh/GMM8B0CdpXzryPO7RqFn4Er/QcXKWq8UwZBywAAAGxlWElmTU0AKgAAAAgABAEaAAUAAAABAAAAPgEbAAUAAAABAAAARgEoAAMAAAABAAIAAIdpAAQAAAABAAAATgAAAAAAAACQAAAAAQAAAJAAAAABAAKgAgAEAAAAAQAAADagAwAEAAAAAQAAACoAAAAAPHm9IQAAAAlwSFlzAAAWJQAAFiUBSVIk8AAAAjtJREFUaAXt2D9Lw0AUAPC7JplswaEUwc1RxzpIK6iDg5Mu/QoiDo5uSujgh3ARHBUEJx0EKxQXdRLESZcK0uogdqv27GtJY9K7/LlcchfoDU3vcq+8Xy55SYrQuKXrCOB0pTvItrVbzmlZ/biL0EF+/+aOZkgdDFCZCf0SY1zqgb66iKzScKmCuVDWQlFxqYExUExcKmA+KCpOeVhAlI3rooW8WXvOWCMqbkOiECLksVcpG2BRdsU4UPUfgtcKZq2tLCwqCmA6fKjUBijjAmME9yn/RohjpawApU7Ff6iylaDnloGCGGVgIlHKwESjlIDFgZIOiwsFMM8b9Odeee7dLBVgoug2QMFTOopcKGi5MWGt6mIR63rdwMa1aJy9Uv1XD1pezjGP6uecaPeoVRFQGtGuEMaTMJUQ8tQhnZUp87Zph/J9s1HxrJSV1QjMjbImisAlhYKcHTAWSgQuSZQD5oeKgksaBbkOi0cGaVvWNWUhaNvefw2zYQqKDJQD9tpobyOCzmkY91hQnCwU5Ou4xu43i8bMdO60N7ruxtD6XgVFJmoEBgMicLJRVFhUnAooJowX99shG5qROYrrMQnyCtoc15g7KOxp6Y737HM8Jnn+nmunJwzmxoKLGQV5+8KE4xJABYYJwyWECgWLjEsQFRrGjUsYxQULjZOA4oYFxklCRYL54iSiIsOYOMkoyGv4PgYdnjZ/+NB5efuuEETO+vEKoHgczJiTCtI+qks7TXM5y5w03hH9CPwBb6PpchHKhQcAAAAASUVORK5CYII=;" parent="1" vertex="1">
          <mxGeometry x="381.63" y="197.5" width="34.72" height="27" as="geometry" />
        </mxCell>
        <mxCell id="QqxZ6Jl-qDBEgsE0jg5c-3" value="" style="shape=image;verticalLabelPosition=bottom;labelBackgroundColor=default;verticalAlign=top;aspect=fixed;imageAspect=0;image=data:image/png,iVBORw0KGgoAAAANSUhEUgAAAMIAAAA6CAYAAADiIIZFAAABdWlDQ1BrQ0dDb2xvclNwYWNlRGlzcGxheVAzAAAokXWQvUvDUBTFT6tS0DqIDh0cMolD1NIKdnFoKxRFMFQFq1OafgltfCQpUnETVyn4H1jBWXCwiFRwcXAQRAcR3Zw6KbhoeN6XVNoi3sfl/Ticc7lcwBtQGSv2AijplpFMxKS11Lrke4OHnlOqZrKooiwK/v276/PR9d5PiFlNu3YQ2U9cl84ul3aeAlN//V3Vn8maGv3f1EGNGRbgkYmVbYsJ3iUeMWgp4qrgvMvHgtMunzuelWSc+JZY0gpqhrhJLKc79HwHl4plrbWD2N6f1VeXxRzqUcxhEyYYilBRgQQF4X/8044/ji1yV2BQLo8CLMpESRETssTz0KFhEjJxCEHqkLhz634PrfvJbW3vFZhtcM4v2tpCAzidoZPV29p4BBgaAG7qTDVUR+qh9uZywPsJMJgChu8os2HmwiF3e38M6Hvh/GMM8B0CdpXzryPO7RqFn4Er/QcXKWq8UwZBywAAAGxlWElmTU0AKgAAAAgABAEaAAUAAAABAAAAPgEbAAUAAAABAAAARgEoAAMAAAABAAIAAIdpAAQAAAABAAAATgAAAAAAAACQAAAAAQAAAJAAAAABAAKgAgAEAAAAAQAAAMKgAwAEAAAAAQAAADoAAAAA8akI9wAAAAlwSFlzAAAWJQAAFiUBSVIk8AAADKJJREFUeAHtXQ1wVMUd333vXUhMAEtyCQQSioDayQxlyod85g4oM3SwgKXQigLSClWE4ljRUgJ5ED60w4cfBVRgsIWWD5XKAB078nEfItIKjpAUKEUnIIEkgEgIEHL3tr89Enj37i7cwV3ua99M5vbt7tuP3+5v9//f/e+GEPEIBAQCAgGBgECAI0AFDNFD4PMpPUytc5W01iRNc5EarY601K6Saq2KmLVBqs0VvZIlX86CCGFu85Mv92idnpKeL1OWT2UpX2P4JTQf2eTir5X+j1KaGjB7RlyMsm8JIxfQSBcZ/hp+z+GbkxqhXzGXdvKoIp0WpAmIYtABgghBQ+Udca9qVR521z+kKEo3xugPKWXd0OG7IVZ775gRfuOEIewUofQoYewQ1bSDdW56qP1Cx+kI55xQyQsiBNmc517slk4z2vSViWZhhBbis95NjuhBphupaCBHNYh5iDH2Kcq751RFzYGe7xysj1R+8Z6uIEKAFtwyhsjWAmtfBD8qEWaBOtUTGpUSIPrdeWM0J4RdZeixEIFkJCKhQSTkJYU7L4hWtZgxnEh7NyHuPWbV+QXyg7d4OAKCCLp+wEd9JaPNUPSPkeghj2LEz9IFB+XEd3XocOUA9hRG4nKkxX9PSZr7NEbnS4xJl5lWd/nGNely3vL91wIlyhXpvCyljZaSkikTuQ0lWhtGaSZlJA9pd4a7M9J+ABxqFyiNpvwxY5xljPxd0rStRyTZnux6RtIT4cT0Li1aZ7UfASDGY3wcGqK4cwYd6jA6+JeUSF+6iPuws8x5fOx7xN1UJwxnWIXa4z7Jnd5ZUWh3wmgPlKcH0u+OemSEkM8FkHcbAymqpIsfF6hlN0L4NiGiJi0RKudY+koynQiZ5BdQNO8PpjXR4Y9hErUTojmu19fb8xbuPxPMd80dR1WJNI1YH0Q5e0PSGoyZYwjq2CGYcqCO5xFvvcvtWtuuZF9ZMN8kQpykIkKFas1SKJsM8eIpjJjoKHd8MFKSHRplO1nddUfOogOVd/wiRiNUqwMepFQeAiIPwejPiXFn8jP2L4h6ay+R65u6qgcux2jVwlKspCBCpTqwm0ykGWjUcXcSfRDnpEdMIGybrcyxrznFnLC0aBCJcP0jP7flEMyGoxF9FDBpUhfCLHEV8TYQl2uZecG+40FkEXdREpYIDeLBCMjMM9DQ1qZahiuO6Px/dbvJX9qWOI40FTfRwvjq2OCCQgs26EajM4xtmhSgBCM7MassNas2WyJhkXBE4BtdBYQ8idFuNhq1S6DGaljd2QYS/Bkj/z8TceQPVPdA/mVqQYqZmEdgDfdpDAxDIT5hKdf/A0YcIpQtK2XS5kRYcUoYItwkgDYBy4mcAA/4bz6ojYSdwE7wG7WY6juptkuB4iW7f4U6IN9EZK5L/QpYdAyEBxclMejM21Nq/1s8DyZxTwSPvNs+/SYBCO0UqMEwwu3C8uBr5vnOfyAO2k88wSDARcxnNctIWSIvYoboF+gbzBDHYBulZhc7tiBO3OEb10SoVAt/hi3YVwOJQGic62iUDW5CX2+r2koDNaLwDw6Bc6q1j0JBCMYeCyg2MVbqJqw4R3VsDS7V2IgVl0SoVq0wd2DLIAYN9AcjJwAqthoWDK+Y1X0V/uIIv7tHoFIdgB1t5QUKXQI4t/CfEtsPA5IZWSX2f/sPjy3fuCLCmdmFeSkmuggN8ARWLnzKjvm4jjL2jiBA83SyhvYoQktMQnuYfHPFGhMj69Ees2J9QPLpTL6Vib4PN4O4P7PDLMwCL2EWSPMtEavHdP02I+7FsQ64b9nj34fPEDJR5sJy7UnURjbWCANULSPa4lomLcUCBRdXY+6JeSKcVwsHw2htFfQAvzvBEIM+RPjMbNX2v5hDN8kKVF3U/yGqKAswWf88QNXLmZtNN8+3bw8QHjXvmCUCN4dIIWwpQJ3gDx0Q4BBxay+YS5x2f+HCL3oIVKmFhZi5X8fg1d1fKdB2WzB4zcDgxU/bxcQTcMMkmqWrmmeZlELJMX8kAIgVGiOTVhB7L0GCaLZS4LyzVYcD7cMtYaegvaqMMUGQsTjjcRSLHk8jLCYG45goRCNQ36jWDqmErQMBftzod+uXMQ3uP8EUYDZGkiu3/IUjphHgZ7hbpbWcg6Osv/WnUEN/sBPmmmJWP/lvNCsSM0Q4r1qhaLE3QQIfq0iMLF/A1h5g2T6PJlgi77tH4Oyc/gUmWVmD9u1jTAWzBlegZ5tV+3L8RmUzLupE+GZW78zU1PveBgDcEtLr4asNsKkv3lvqeC2et++9KpXEL3yXeiq1PAczeCyB+x4cAiH23KhnT0Xj4oGoEqF67sDhRJLWAJS2xv4BUD6qr69/Jnfhp+XGMPEe3wh49h9SpFXofMN9asKPs1Iy1Vxs3+gTFkGPqBDBczwys/0yidKpxrqBALB9p7+DGPSWMUy8JxYCUJZ/ycVhDIQ+5yHQDzZeIXRqcxlGNjsRKov6dZYU0xZU/kc+zcrYZ5qLTche4DjhEyY8EhKBKtXaFtar69AfhvlWkJ12u7THc0qc+3zDwuvTrESonDtwtCzLa1GF1t7VYPUao/NtZbbFQhfwRiZZ3kCIaVhZ+qOP5QDsM6ArwkTDtiSSWDQLEfiBjxyStQQrBtONlUEljxPmHod7dg4Zw8R7ciFQUVT4A5NCN/iTFtBPtl3BWfNIiUoRJ0LF7H4dTSbT+6hcT2OzQg7chB3GyWJfwIhM8r7fPE+dPh/648vQFb36J/rLV1hFHBOJQdMro3DD79lqp/R9THdmfdpgNy7BIs8LhViPinDrEYCoNAxHRjfAL1PvH6m+EzEiYEXgGch8bxh3E1GRk7jFeUx2iYNfOSgegUBABPgya4sU6T1EeMQYCbPDmvKKK1PDdZ9r2InAp7aOuRnc4OpZY+Hx/sF3V2t+3fnVg9/5CRNeAgEfBHh/+n5uBtcvYaLh/cDiwOm6ro1ut9hZ7R0S+ltYicAtRk2UQBQiFq+iwE5Io6Qou9i+2MtfvAgEgkQAhphj0K/WQsxuafik3M3cI3JU52GDf0ivYSOCx5ZEMeHOG+8bD8DaGtwE+kQs2qCHhJSIHHUE+HkHYlK2gwxd9YWBmHQFfuOzVNuHev9Q3GExw4Y+YIVB1SfIuKM+c64PuJjWR5BAj4pw3y0C/Ja9q9fc0BfYx/o0IIZn4PTiVijYRXr/UNz3PCNUz7M8DiOqdyHDpegzBgl2X2d1Y/PU/Rf1/sItELhXBG7ezmdZ7m9fCkd21x0hdMqgEP8H3T0R4bxqeQnHKl4xrvfi4MyKMkKeD7Uw9wqQ+D65EMAgPBkdeIXPyiQMNrE/NSaU/am7IoLHnJZY3vQ1moO0RthMc7FjaXI1iahttBBoOBb6AcQjL8M9SCQHtbprw4O9wTxkInytWlMzKNmED0fqK4+M63BTwUTcdLZZ7y/cAoFIIwDdoAv2oD9Cn8R/Ebr9YFD+GuY7w4I5/RYSEZAhOMC2g33W29nBxW3I3doocYbYCxXx0owInJ010KykSjuxetTLkO0Ft4v9NKfEvt/g7/Ua9KpR+e8HfA8Hrnf7IcGpeqL1FyTwwlW8NDMCfFPNXfPtIEgmfAlf/2RKCtnNTTb0nkZ3UESo/MMjOelpsh1aOv4V0e0HGsFhWMn2bac6/3PbV7gEAtFBoO2Sw7WljIyCospN/W89mCXSMIhv43fl3vI0OO4oGnmuB6fyLiTmtYkBceizGkJ/EimzWEM5xatAICQEqucVFuMfPKqGj/BPHtmkrGL7eoN/03fKVBUVdpUUugszQb7+Q8wEe7A8NTKU5Sn998ItEGgOBBoMP1d6L+9jviDkOZBhlb4MAUUjXK/yMFWoww8JduAs6XBBAj2Mwh2LCDSY+U9E2TATND78jANdiT2ImY0+/NevaOSx6VAUGxRjr9slwKXN5RU148Nl+qoviHALBCKFANcNZEI3YlD3sn7QGMNlcfZFPF+fGYGLQzBs2uuHBGtXENs4QYJINZdIN1II8H9aghsSR2Jf4VpjHpCPajFPOBvfvWYEz8YEYXaQILcxAv8Fc1aCOdPg5PKVeAQCcYlAw4nJHSi8AhIMhzHo3saK3CICv2ZFVkw2TB8dGgP5L44SvGVWHfz+IUECPTDCHZcInJ9j6UWo1iprvnO3vgIeIpwrKuykmKgdKkOePhCrQ6txH+Vv4CdIoAdGuBMOAY+OIJtwMSsj7fW145sSggR6RIQ7kRHwEIHfMwlFYjzI4PJUlrF3oRhPgVvMBInc+qJu/hGonGt5rFq1rOZm1v5jCF+BgEBAICAQEAgIBAQCiYzA/wGBWoR1I+XIrQAAAABJRU5ErkJggg==;" parent="1" vertex="1">
          <mxGeometry x="335.04" y="135" width="127.9" height="38.24" as="geometry" />
        </mxCell>
        <mxCell id="QqxZ6Jl-qDBEgsE0jg5c-4" value="" style="shape=image;verticalLabelPosition=bottom;labelBackgroundColor=default;verticalAlign=top;aspect=fixed;imageAspect=0;image=data:image/png,iVBORw0KGgoAAAANSUhEUgAAABgAAAAYCAYAAADgdz34AAABdWlDQ1BrQ0dDb2xvclNwYWNlRGlzcGxheVAzAAAokXWQvUvDUBTFT6tS0DqIDh0cMolD1NIKdnFoKxRFMFQFq1OafgltfCQpUnETVyn4H1jBWXCwiFRwcXAQRAcR3Zw6KbhoeN6XVNoi3sfl/Ticc7lcwBtQGSv2AijplpFMxKS11Lrke4OHnlOqZrKooiwK/v276/PR9d5PiFlNu3YQ2U9cl84ul3aeAlN//V3Vn8maGv3f1EGNGRbgkYmVbYsJ3iUeMWgp4qrgvMvHgtMunzuelWSc+JZY0gpqhrhJLKc79HwHl4plrbWD2N6f1VeXxRzqUcxhEyYYilBRgQQF4X/8044/ji1yV2BQLo8CLMpESRETssTz0KFhEjJxCEHqkLhz634PrfvJbW3vFZhtcM4v2tpCAzidoZPV29p4BBgaAG7qTDVUR+qh9uZywPsJMJgChu8os2HmwiF3e38M6Hvh/GMM8B0CdpXzryPO7RqFn4Er/QcXKWq8UwZBywAAAGxlWElmTU0AKgAAAAgABAEaAAUAAAABAAAAPgEbAAUAAAABAAAARgEoAAMAAAABAAIAAIdpAAQAAAABAAAATgAAAAAAAACQAAAAAQAAAJAAAAABAAKgAgAEAAAAAQAAABigAwAEAAAAAQAAABgAAAAAiB+cqwAAAAlwSFlzAAAWJQAAFiUBSVIk8AAAAftJREFUSA3dlD1MU1EUx895yIeJMrR8JAgDkYXBjQQaCbA4uBgnJhMG4+DAxqCGwA3i4sLCzGQcNAxEWUltxRIHFoIhApOJNISQOiBS+u6fcyP35rW81tDXBc/Qc3o+/r+e2/cu0VU3/tcCSpE3TkMDxJQgcId4lqG9AtNacuPTl9H35FfSKAvYHu9pjLV2PpXhZ9LUHioCHEj+9VEuP981lzkO6wkFZCeHuhsaeImI74QNleYAbPmneNA2m9ourV0A7KuRnmuMjBxES2lzxe9ADtB34yr9LdhXBBDxG3Uevsox9wabLhHv/tLU162SOTvj2cD4OqaJCOJG4nYz44UJrLkNzn/9TwHctMVqPAjHv3W+s0tlDs2828Bj3IsqbgRF43oT1983sTEHkMLw31T0Ty+g5QDEuBVd+lyByWk5AIMaawYAOy0HAFG2VgB5cpyWAzDzeq0AYDgtB8CJXiaCLBLdtPY/WhUHiL9K/QD4nS1U7YEPrerzdzvvACbhgyZlhSNbvKyXS+8PCoXnwbkiQJtK7hD8sWqPSk7gSfzl6mZZgCnEp9OLpPHIvPLBxooxkIfWj1tU8k1pX9EGthhTqbeFUz8hkBWbK+uBtA+Wazq1ENbjLruwoskdzAz2e9p7SOwl5PHrMDl5KbPyX60x66XYVHrV5P5fOwNr1afbe4vXhgAAAABJRU5ErkJggg==;" parent="1" vertex="1">
          <mxGeometry x="449" y="157" width="14" height="14" as="geometry" />
        </mxCell>
        <mxCell id="QqxZ6Jl-qDBEgsE0jg5c-5" value="" style="shape=image;verticalLabelPosition=bottom;labelBackgroundColor=default;verticalAlign=top;aspect=fixed;imageAspect=0;image=data:image/png,iVBORw0KGgoAAAANSUhEUgAAAMIAAAA2CAYAAACV4kY+AAABdWlDQ1BrQ0dDb2xvclNwYWNlRGlzcGxheVAzAAAokXWQvUvDUBTFT6tS0DqIDh0cMolD1NIKdnFoKxRFMFQFq1OafgltfCQpUnETVyn4H1jBWXCwiFRwcXAQRAcR3Zw6KbhoeN6XVNoi3sfl/Ticc7lcwBtQGSv2AijplpFMxKS11Lrke4OHnlOqZrKooiwK/v276/PR9d5PiFlNu3YQ2U9cl84ul3aeAlN//V3Vn8maGv3f1EGNGRbgkYmVbYsJ3iUeMWgp4qrgvMvHgtMunzuelWSc+JZY0gpqhrhJLKc79HwHl4plrbWD2N6f1VeXxRzqUcxhEyYYilBRgQQF4X/8044/ji1yV2BQLo8CLMpESRETssTz0KFhEjJxCEHqkLhz634PrfvJbW3vFZhtcM4v2tpCAzidoZPV29p4BBgaAG7qTDVUR+qh9uZywPsJMJgChu8os2HmwiF3e38M6Hvh/GMM8B0CdpXzryPO7RqFn4Er/QcXKWq8UwZBywAAAGxlWElmTU0AKgAAAAgABAEaAAUAAAABAAAAPgEbAAUAAAABAAAARgEoAAMAAAABAAIAAIdpAAQAAAABAAAATgAAAAAAAACQAAAAAQAAAJAAAAABAAKgAgAEAAAAAQAAAMKgAwAEAAAAAQAAADYAAAAANFnl9gAAAAlwSFlzAAAWJQAAFiUBSVIk8AAADUNJREFUeAHtXQt0FNUZ/u/MbrIJIGgJCSg+2mJBRG31yCsvfFI9Wt8VtR6q0IIWlfoWkIGAClIsB8QnSj2eQn31WPCgHB+7ARqwtT21UKhYlSKQZRFBA3ns7tx+/5IJM7OTNNk8dpPcPSe59/73zsx/v7nfvf99DpH6KQQUAk4Edhojj/vcKA04pSqkEOg6CFROLz4lYpROcudIswR7HizKyxFZwV4k31RksFBRbldCYO/04kE+nygXgp6KzCq51563BBH2GqUF/mwtSCSGkRAXgQyrdk4dmWNPqPwKgc6MwB6j6DThFyGU7xM4H4LEfDsZEkTQBC1BgtMaMirEBYHeWat3G2fnNsiURyHQSREIzyg80ye0IAp/f0cWJA2zwgki1EmaJIn+YQnZFUKc56eeb1Xec0YPu1z5FQKdCQH0B87Rdf19kCDPrreU8vknKTTekgnL8+WD534nOzvnXRDgLEvGLi4oj1d9fUnBgo8P2eXKrxDIdATCRvEoncQa1OrHOHSV5pK+RvkdkKH+P/JLtAjsPeHRD7+qobrzUfD/Vh+XcECMYr3Xce/85/6ze9vlyq8QyGQE0O8dqwltrZsEUpoLQIIp0L2BBJyPhhbBytSOBwqPzQ3oa0GAcywZu2w6mbXVF+c/silslyu/QiDTENg3q+Rn0GkZirffoZs054AEMxyy+kBDi2BFnvTY+q+rSFwIm+hDS8YuGHOmlhVYv8coPdkuV36FQCYhEJlVfDf0+Z2bBKaU0xojAeuf1CJYmdpuDD+mDwXeQstQaMnYhem0OxaPXdS/bMMWu1z5FQJpRkBEjOL5Qmj3OPSALYTwlL5GaKlD7go0SgROx3MJgT7ZryLRpY7rpNwfI3FpgRHc6JCrgEIgDQh8YJT6Tif5AiptNokafjDna6Wkm/oZwdcahI14kkwje7qBT1RUb5Z0BVqBl+1ydECO0wW9G3646GKHXAUUAh2MAFsuw0iy5eIgAUyXb9CxHdscErDKTbYItjyJfUbJb0EAHnI6+pMUk0Leljcz9NxRofIpBDoGAe6v+gWtxtOG2p+IirvSjMfH5petd8yN2dO4/U22CLbEEjbWnXjATJuMaeTDRMWzEaNkHuTNJZXjFiqgEEgFAZ4j8InEgI6TBCS3x2NyVEtIwM9vceFFy3AbrluM1sFJIilfqz5YdzObU6lkTF2jEGguAhgZupFIW4bCm+24RsqN0Vrz8v6Pros45M0IOAtzMy7g3rckeSU6Is6ZZiGuyemd9X6lMapfM26jkigEUkEAI0MlswVpL7tJAGtlxbckxqRCAlakxS2CpX3EKPoRCW21eyETSPJ5LBa7TA2vWkgpty0QwExxT43ki7BErnHfT5Jp5M0sn+WWtyScMhH4IbumFQ/M8ovV6LGfYX8o2Fllmub4/NnrXrfLlV8hkAoC+4zSwSTkG6i3h9ivRzmrgezneUZwpV2eir9VROAHRu4b3Ytyfa+ADGPdCpjSfGwplU8zDOJJDfVTCLQYAXSKr9KEWA7Lo5f9Ypjm4Xgs9pOCsvWb7PJU/a0mAj/4lWtJHzO0ZDHIMNlDkXcOVcfG8dINjzglUgh4IlBfph5BmbrPnQDm99+jMn7FAGP9f91xqYbbhAjWw7HjZ6KQiU0+WZaMXTRhn5lkXplvrPvYLld+hYAXArxt2JetrQQJzkuKl3I5OsWTTzGCMIva7temRGC1KmcUDvf5fNw3ON6uJshwGEye0s8of8EuV36FgB2BsFF6gSbkS+5BGNSmdZi8vQOd4mfs6dvK3+ZEYMXCDw3P17IDWKMkityKghArD1DNLwcZm75xx6lw90Xgr78423/SgJ5zsbEei+bw3/GTO6PSvKa/sc6xItqRpJUB1wNbeTfb5bwQCmtAFiJPvAnC8WNTScTp+r5lob84IlSgWyLAp0sIn/g9TKFzkgCQ8t06EuMGGMF9SXFtKGg3Ilg6YujrJinoaTyohyU74sqolOIhDH39BmEMAqhfd0QA8wPjBUkeaOnpyn8c8wNlH2wun3PdqxR3xbV5sN2JwBpHjMJTSegrYSr9MCkHUq6tIXHrCUbwy6Q4JeiyCLD5rGcFlsJiuMojkzvisfiN+WXrNnjEtYuoxUssUtEiz1j/yV65bwTq/UVJ1+McpYCgzXuN4luS4pSgSyLAa4VAgn95kQD7B/5w8PC3Z3YkCRjkDmkR7G8z8nDRpaRpy9EU9rXL2Y9RpTU1dXUTB86t2OWOU+HOj0DEGD2AhA9msrjMnRv0G6skCYwqBpe74zoi3OFE4EwdAcSPITI63yOTB02SU/vNDL3oEadEnRQB7gtgrdATaAX6JGdBVphS3AwSfJoc1zGStBChPmu82WcyesnzPDpKPAu31ozJX/WbU769Y6BQT2kPBPbMGD3Up/uW4B2Xuu/Pc0uwSaY/KUOL0r0MJ51ESODCu4x8JJcBqKRZRJCkFjPVC6oP1s5V+xzcxSizw/WHPxgwg6agsPvc2uLdhtAfmJDOVsCuU9qJUK+MwFk0kwAMTiFIGkbj1uELMs27+s5e96ZdeeXPTAQSQ+YkH8e7LHBryH0BFLr7sa/lKcSBD5nxyxQiJNDg1sEv5LPow1/oBQ9Qe0tGzanKXPJCJ/0ynDh9Lg7bXeC1ooC14/cXrau7fcDcP+9Iv7ZODTKKCJZqGEq9Dsf1LUTYsV4pEc8HBpD5vCRtFprVSusa5aYPAZ4nEqTPRUc4adMMa8UrCbAQ/6682aFV6dOy6SdnJBFYZd6RhBnHGVh1MhUthN+dDdQuh4DwQjocezxv/oZv3fEq3P4IJEb/yDcTLcAt3v0AyfvXHz2wb9f8QYs/rW1/jVJ/QsYSwcrS7unFQ/w+waMOSZ1pToO5hwj6FnMO4TSNtl6aa+mgXCcCvExaz9bvFlgNChLkOGPrQ1K+UReN/joTzSAvfTOeCJbSOEzsak3TeKPGqZbM7qL5rUSttJAOxZ5WLYQdmbbz7zYKT8wi/R6sHZvQBAE2YmLsQawhC7bdk9v/Tp2GCAxF4mg/Yd4KU4mbY+fXTxqwkl+jhVhSW1u9iI+6bxArT8oIJPYMEz2AfcM3eJmpR24st8bjNC1/duiPKT8ojRd2KiJYOPEnrXzU8y7sZeVtfJ7fbeA+BOYgnjdj5pNqlMlCrkWuCD9ccoGmi9vRV7scBGikrMid2JA+M7g59FJHrBJtUQ5akLiRzLXgDmlMyl/5ycrOvRe26m1oIXp5q4L2QdJ7cZOWhraG/tSZX5Z3/tpWyp8YDlDWeJiZk4DpoCbuvsPEZOfBr758LtM7wk3koSGqUxPBygU+h9unhzBRc4k78ef4VpaVpt7dhb7EszXRumVqYZ8DGRGeUTQK3xqbiFrjp+iHBRyxzgA+ByDn/VOKFWOMYMwZ1XlDXYIIFvx8jH12n6wJmsR2PyFOtORJLs7Mh+lUDvkKfC7rtYFGxf6kNN1AEDaKzkDFMQ5zNuOQ3ZOazrKsQCXyWJ5RznMBgK9r/boUEaxXc2T/a49rYddORu3m+NCJleaoi51yJNYSmSsOyNpVXX0vNQ9H+3za1VgJOg6VxWlHcUj2oeDzSRGvmnF6Kr8sVJGcoutIuiQR7K+n0ig9HS99skZ0E178Mfa4JH/imHvagE722/F4bE1LT1ROul8GCPjzwHruseeRJi/Buc0/hkr/p+ZPzM1gxa98pramZnl3GXnr8kSwymL9TPUNyPCtIMS5lrwpFzXibqR/xyRRLmLRirw5Gz5B+ow2Czifmhkfbmr6SFQAJdC3GPl1nDPllWdkimfqVyGvy/KN4HuZnk+vPLRG1m2IYAcpbBR+F2tjrkcrwebB6fa4pv2JOQo+YrACZ7tuimr6lnTuteZhZD/lDpZCDEMrNgKHMo8UUg5DnpC1Zvz4rCCit2FCrohX7V/Vnb+l3S2JYC8ivHHEr/vRWZRXogA1aTPbr7P8aDXwEVLxb7QT21CotpEwt8O/R5BZeYCila3pc/AE4vejtfkBTS8g3dcf9z6epPgBnj0EfZ8h0BkDAo2N71saOl3oexiSIEaHXj9E2htYlnLAmaJ7hro9EeyvnZcQ+Ekfi6I1FoX5fJSxpvsU9osb8aPAVaO2DoMk+wF2DVwc2oENR+yXhIVoXJBlDv7nIC6A58IvclBg8xDRF9HNq90beT6Lca9t+P82Jr7WHCatXK3JSgYLWKufFwJcGw8lcxQK6BjUwiPgDkehPdYrbUbJ+HOqQmwFyTZKYVbEpfZefyP4RUbpmIHKKCI0/6WIyPTRp0q/PoLtcYy/n4VLcW6/12b05t+0lSlxCBbW+kvaivt8ZJpUUVVb9eH35n10sJX37XaXKyK08pUnznnVswbjs4qD2X5Hy3EyCmY+zBzeplgAMyc35UfwxJ8Q/D2wStg36HfQHlT3n0kzvhXfnti2Xz+wfaixpS7l+6sLGxBQRGiAon08PJyJOxeIeKy3qWvZOvoBpimyuT+gaXAFyrqkatjvNSIuqtEhqInpolqn6P4PtmwIq7VR7fNe1F0VAgoBDwT+B0jWdXN/TAm+AAAAAElFTkSuQmCC;" parent="1" vertex="1">
          <mxGeometry x="336.22" y="252" width="125.74" height="35" as="geometry" />
        </mxCell>
        <mxCell id="QqxZ6Jl-qDBEgsE0jg5c-6" value="" style="shape=image;verticalLabelPosition=bottom;labelBackgroundColor=default;verticalAlign=top;aspect=fixed;imageAspect=0;image=data:image/png,iVBORw0KGgoAAAANSUhEUgAAABgAAAAYCAYAAADgdz34AAABdWlDQ1BrQ0dDb2xvclNwYWNlRGlzcGxheVAzAAAokXWQvUvDUBTFT6tS0DqIDh0cMolD1NIKdnFoKxRFMFQFq1OafgltfCQpUnETVyn4H1jBWXCwiFRwcXAQRAcR3Zw6KbhoeN6XVNoi3sfl/Ticc7lcwBtQGSv2AijplpFMxKS11Lrke4OHnlOqZrKooiwK/v276/PR9d5PiFlNu3YQ2U9cl84ul3aeAlN//V3Vn8maGv3f1EGNGRbgkYmVbYsJ3iUeMWgp4qrgvMvHgtMunzuelWSc+JZY0gpqhrhJLKc79HwHl4plrbWD2N6f1VeXxRzqUcxhEyYYilBRgQQF4X/8044/ji1yV2BQLo8CLMpESRETssTz0KFhEjJxCEHqkLhz634PrfvJbW3vFZhtcM4v2tpCAzidoZPV29p4BBgaAG7qTDVUR+qh9uZywPsJMJgChu8os2HmwiF3e38M6Hvh/GMM8B0CdpXzryPO7RqFn4Er/QcXKWq8UwZBywAAAGxlWElmTU0AKgAAAAgABAEaAAUAAAABAAAAPgEbAAUAAAABAAAARgEoAAMAAAABAAIAAIdpAAQAAAABAAAATgAAAAAAAACQAAAAAQAAAJAAAAABAAKgAgAEAAAAAQAAABigAwAEAAAAAQAAABgAAAAAiB+cqwAAAAlwSFlzAAAWJQAAFiUBSVIk8AAAAftJREFUSA3dlD1MU1EUx895yIeJMrR8JAgDkYXBjQQaCbA4uBgnJhMG4+DAxqCGwA3i4sLCzGQcNAxEWUltxRIHFoIhApOJNISQOiBS+u6fcyP35rW81tDXBc/Qc3o+/r+e2/cu0VU3/tcCSpE3TkMDxJQgcId4lqG9AtNacuPTl9H35FfSKAvYHu9pjLV2PpXhZ9LUHioCHEj+9VEuP981lzkO6wkFZCeHuhsaeImI74QNleYAbPmneNA2m9ourV0A7KuRnmuMjBxES2lzxe9ADtB34yr9LdhXBBDxG3Uevsox9wabLhHv/tLU162SOTvj2cD4OqaJCOJG4nYz44UJrLkNzn/9TwHctMVqPAjHv3W+s0tlDs2828Bj3IsqbgRF43oT1983sTEHkMLw31T0Ty+g5QDEuBVd+lyByWk5AIMaawYAOy0HAFG2VgB5cpyWAzDzeq0AYDgtB8CJXiaCLBLdtPY/WhUHiL9K/QD4nS1U7YEPrerzdzvvACbhgyZlhSNbvKyXS+8PCoXnwbkiQJtK7hD8sWqPSk7gSfzl6mZZgCnEp9OLpPHIvPLBxooxkIfWj1tU8k1pX9EGthhTqbeFUz8hkBWbK+uBtA+Wazq1ENbjLruwoskdzAz2e9p7SOwl5PHrMDl5KbPyX60x66XYVHrV5P5fOwNr1afbe4vXhgAAAABJRU5ErkJggg==;" parent="1" vertex="1">
          <mxGeometry x="332.04" y="247" width="14" height="14" as="geometry" />
        </mxCell>
      </root>
    </mxGraphModel>
  </diagram>
</mxfile>
